<svg width="75" height="11" viewBox="0 0 75 11" fill="none" xmlns="http://www.w3.org/2000/svg">
<path d="M22 0L20.1429 3.62531L16 4.20426L19 7.01629L18.2857 11L22 9.12531L25.7143 11L25 7.01629L28 4.20426L23.8571 3.62531L22 0Z" fill="#FFCE50"/>
<path d="M6 0L4.14286 3.62531L0 4.20426L3 7.01629L2.28571 11L6 9.12531L9.71429 11L9 7.01629L12 4.20426L7.85714 3.62531L6 0Z" fill="#FFCE50"/>
<path d="M37.5 0L35.7976 3.62531L32 4.20426L34.75 7.01629L34.0952 11L37.5 9.12531L40.9048 11L40.25 7.01629L43 4.20426L39.2024 3.62531L37.5 0Z" fill="#FFCE50"/>
<path d="M53 0L51.1429 3.62531L47 4.20426L50 7.01629L49.2857 11L53 9.12531L56.7143 11L56 7.01629L59 4.20426L54.8571 3.62531L53 0Z" fill="#FFCE50"/>
<path d="M69 0L67.1429 3.62531L63 4.20426L66 7.01629L65.2857 11L69 9.12531L72.7143 11L72 7.01629L75 4.20426L70.8571 3.62531L69 0Z" fill="#CACACD"/>
<path fill-rule="evenodd" clip-rule="evenodd" d="M68.1192 2.0686L67.3411 3.6283L63.3027 4.20773L66.227 7.0221L65.5308 11.0091L68.1192 9.66774V2.0686Z" fill="#F8C642"/>
</svg>
