<svg width="79" height="44" viewBox="0 0 79 44" fill="none" xmlns="http://www.w3.org/2000/svg">
  <path fill-rule="evenodd" clip-rule="evenodd" d="M1.80169 11.832L1.8533 17.636C2.57147 14.58 4.10914 11.7776 6.30095 9.53026C6.48114 9.32653 6.68668 9.14725 6.89222 8.96887L1.80169 11.832ZM28.2069 35.8631C28.7982 35.8631 29.2609 36.2977 29.2862 36.8609C29.2862 37.2955 29.0037 37.6794 28.618 37.8324L19.5162 43.1756C19.2337 43.3549 18.8734 43.3802 18.5655 43.201L9.90019 38.1394L9.87483 38.114L0.490572 32.8469C0.349616 32.7684 0.232328 32.6534 0.150943 32.514C0.0695589 32.3747 0.0270595 32.216 0.0278786 32.0547L0.104843 22.0067L0.00252557 11.372C-0.023733 11.0397 0.156455 10.7074 0.464314 10.529L9.25821 5.56884L18.4876 0.147808C18.771 -0.0314741 19.1305 -0.0568272 19.4393 0.122455L28.1037 5.18402H28.129C28.4641 5.3633 28.6696 5.67025 28.6696 6.05326C28.6696 6.61647 28.2323 7.07644 27.641 7.07644C27.4024 7.07921 27.1689 7.00769 26.9728 6.87181C25.7304 6.20459 24.4085 5.6977 23.0385 5.3633C21.6093 5.01 20.1397 4.84682 18.6678 4.87797C14.0137 4.98029 9.84857 6.92251 6.86687 10.0165C5.33578 11.5993 4.13208 13.4686 3.32474 15.5174C2.5174 17.5662 2.12229 19.7542 2.16206 21.956C2.205 24.1565 2.68381 26.3266 3.5708 28.3408C4.45778 30.3551 5.73534 32.1735 7.32957 33.6908C10.5589 36.7715 14.8738 38.4529 19.3361 38.3694C20.8079 38.3421 22.2695 38.1186 23.6823 37.7048C25.0849 37.2907 26.4316 36.7069 27.6926 35.9663L27.718 35.9409C27.8465 35.9147 28.0258 35.864 28.2069 35.864V35.8631ZM1.87865 25.7662L1.82795 31.5702L6.94384 34.4333L6.81526 34.3047C4.42483 32.0049 2.67637 29.0639 1.87865 25.7662ZM13.9884 38.4454L19.0019 41.3855L24.0418 38.4192L23.8607 38.4708C22.3956 38.9054 20.8536 39.1354 19.3107 39.1608C17.5097 39.2086 15.7128 38.9671 13.9884 38.4454ZM23.9902 4.87797L18.9503 1.93701L13.9114 4.90242C15.4424 4.45921 17.0231 4.21007 18.6162 4.16084C20.1574 4.13841 21.6952 4.31029 23.1933 4.67243C23.4759 4.74849 23.733 4.79919 23.9902 4.87706V4.87797Z" fill="#0B7572" />
  <path fill-rule="evenodd" clip-rule="evenodd" d="M24.0422 12.5219C24.4787 12.7519 24.6335 13.3142 24.4017 13.7488C24.1708 14.1834 23.6049 14.3374 23.1676 14.1074C22.5031 13.7449 21.7946 13.4698 21.0596 13.2888C20.3271 13.1143 19.5762 13.0286 18.8231 13.0335C16.5321 13.076 14.3508 14.0224 12.7547 15.6666C11.2127 17.2512 10.3127 19.4243 10.338 21.802C10.3605 22.9327 10.606 24.0477 11.0605 25.0832C11.515 26.1187 12.1695 27.0542 12.9865 27.8361C13.8053 28.6244 14.7723 29.2426 15.8314 29.6551C16.8906 30.0676 18.0209 30.2661 19.1573 30.2392C19.6716 30.2392 20.0826 30.6231 20.0826 31.1338C20.0826 31.6454 19.6969 32.0547 19.1826 32.0547C16.4012 32.1103 13.7111 31.062 11.7007 29.139C10.7067 28.1946 9.91064 27.0619 9.35878 25.8067C8.80692 24.5516 8.51034 23.1992 8.48632 21.8283C8.45975 20.456 8.70514 19.092 9.20835 17.815C9.71156 16.5381 10.4626 15.3733 11.4182 14.3881C12.3729 13.3974 13.5139 12.6051 14.7756 12.0566C16.0374 11.5081 17.395 11.2142 18.7706 11.1918C19.689 11.1662 20.6065 11.2699 21.4961 11.4996C22.3708 11.755 23.2445 12.0873 24.0422 12.5219Z" fill="#0B7572" />
  <path fill-rule="evenodd" clip-rule="evenodd" d="M11.9316 11.7034C12.1109 11.5767 12.3427 11.6274 12.4713 11.8057C12.5998 11.985 12.5482 12.215 12.368 12.3427C10.8332 13.4103 9.58774 14.8425 8.74345 16.5106C7.90707 18.1754 7.48376 20.017 7.5093 21.88C7.56091 25.0237 8.92364 27.8615 11.0316 29.8816L11.0569 29.9069C12.1396 30.9445 13.4176 31.7567 14.8166 32.2966C16.2157 32.8364 17.708 33.093 19.207 33.0516C20.2086 33.0277 21.2028 32.8731 22.1643 32.5916C23.115 32.3109 24.0413 31.927 24.9151 31.3901C25.0953 31.2878 25.3524 31.3385 25.4548 31.5169C25.558 31.6961 25.5064 31.9515 25.3262 32.0547C24.4083 32.6053 23.4232 33.0351 22.3952 33.3332C21.3675 33.6393 20.3126 33.7932 19.2333 33.8186C15.9958 33.8917 12.8614 32.6781 10.5173 30.4439L10.4919 30.4185C9.32731 29.3184 8.39507 27.9959 7.75028 26.5294C7.10548 25.0628 6.76122 23.4819 6.73784 21.88C6.68623 19.8599 7.17518 17.8905 8.04896 16.1266C8.98186 14.3705 10.3112 12.8561 11.9316 11.7034Z" fill="#0B7572" />
  <path fill-rule="evenodd" clip-rule="evenodd" d="M15.4041 22.0585C15.3788 22.0585 15.3525 21.8793 15.3525 21.6746C15.3525 21.47 15.3788 21.2916 15.4041 21.2916H18.5914V17.763C18.5914 17.7377 18.7725 17.7123 18.978 17.7123C19.1836 17.7123 19.3638 17.7377 19.3638 17.763V21.2916H22.551C22.5782 21.2916 22.6035 21.47 22.6035 21.6746C22.6035 21.8793 22.5773 22.0585 22.5519 22.0585H19.3638V25.5862C19.3638 25.6116 19.1836 25.6379 18.978 25.6379C18.7725 25.6379 18.5923 25.6116 18.5923 25.5862V22.0585H15.4041ZM43.8123 13.2873H32.1227C31.679 13.2873 31.4137 13.4331 31.4137 13.9881V28.481C31.4137 29.0361 31.6799 29.1819 32.1227 29.1819H34.543C35.0157 29.1819 35.2511 29.0361 35.2511 28.481V16.6764H40.683V28.481C40.683 29.0361 40.9483 29.1819 41.3911 29.1819H43.8123C44.255 29.1819 44.5203 29.0361 44.5203 28.481V13.9881C44.5203 13.4331 44.255 13.2873 43.8123 13.2873ZM59.3392 30.4386C59.3392 30.9937 59.6045 31.1395 60.0482 31.1395H62.0547C62.4984 31.1395 62.7637 30.9937 62.7637 30.4386V26.2898C62.7637 25.8515 62.6161 25.5881 62.0547 25.5881H60.8749V13.989C60.8749 13.4331 60.6096 13.2873 60.1668 13.2873H50.8079C50.3651 13.2873 50.0998 13.4331 50.0998 13.9881L49.332 23.9808C49.2731 24.8863 49.0368 25.5881 47.7085 25.5881C47.1471 25.5881 47.0004 25.8506 47.0004 26.2898V30.4386C47.0004 30.9937 47.2657 31.1395 47.7085 31.1395H49.7458C50.1886 31.1395 50.4539 30.9937 50.4539 30.4386V28.9193H59.3691V30.4386H59.3392ZM53.0815 24.1846L53.7009 16.5587H57.1842V25.7628H52.1073C52.6976 25.5582 53.0218 25.0611 53.0815 24.1846ZM76.726 20.9412C76.9324 20.8543 78.4971 20.0647 78.4971 17.6399C78.4971 15.3898 76.7858 13.2864 72.8289 13.2864H66.0107C65.4493 13.2864 65.3026 13.549 65.3026 13.9872V28.4801C65.3026 28.9184 65.4502 29.1809 66.0107 29.1809H73.1838C76.5793 29.1809 78.9996 27.6036 78.9996 24.5359C79.0125 23.7804 78.8042 23.0376 78.4004 22.3989C77.9966 21.7603 77.4149 21.2536 76.7269 20.9412H76.726ZM73.2128 25.7338H69.111V16.6764H72.8298C74.0992 16.6764 74.8671 16.939 74.8671 18.0211C74.8671 18.9555 74.2468 19.4517 72.8298 19.4517H72.5047C71.9433 19.4517 71.7966 19.7152 71.7966 20.1534V21.9943C71.7966 22.4325 71.9442 22.696 72.5047 22.696H73.0661C74.2468 22.696 75.1034 23.0464 75.1034 24.1565C75.1034 25.2666 74.4243 25.7347 73.2137 25.7347L73.2128 25.7338Z" fill="#0B7572" />
</svg>