<svg width="10" height="10" viewBox="0 0 10 10" fill="none" xmlns="http://www.w3.org/2000/svg">
  <path d="M9.2445 4.57567C9.2445 6.81618 7.38429 8.65133 5.0661 8.65133C2.74791 8.65133 0.887695 6.81618 0.887695 4.57567C0.887695 2.33515 2.74791 0.5 5.0661 0.5C7.38429 0.5 9.2445 2.33515 9.2445 4.57567Z" stroke="white" />
  <path fill-rule="evenodd" clip-rule="evenodd" d="M4.26264 1.90317C4.54958 1.89051 4.64107 1.8877 5.372 1.8877C6.10293 1.8877 6.19442 1.89074 6.48112 1.90317C6.76781 1.91559 6.96351 1.95943 7.13475 2.02296C7.31406 2.0879 7.47673 2.1894 7.61127 2.32068C7.74826 2.44938 7.85394 2.60504 7.92145 2.77711C7.98799 2.94121 8.03349 3.12875 8.0467 3.40303C8.05991 3.67849 8.06284 3.76616 8.06284 4.4664C8.06284 5.16687 8.05966 5.25454 8.0467 5.52952C8.03373 5.8038 7.98799 5.99135 7.92145 6.15545C7.85394 6.32754 7.74808 6.48346 7.61127 6.61234C7.47673 6.74362 7.31406 6.8449 7.13475 6.9096C6.96351 6.97336 6.76781 7.01697 6.48161 7.02962C6.19442 7.04228 6.10293 7.0451 5.372 7.0451C4.64107 7.0451 4.54958 7.04205 4.26264 7.02962C3.97643 7.0172 3.78073 6.97336 3.60949 6.9096C3.42992 6.84489 3.26722 6.74345 3.13273 6.61234C2.99583 6.48357 2.88989 6.32772 2.8223 6.15568C2.75601 5.99158 2.71051 5.80404 2.6973 5.52976C2.68409 5.25431 2.68115 5.16663 2.68115 4.4664C2.68115 3.76593 2.68433 3.67825 2.6973 3.4035C2.71026 3.12875 2.75601 2.94121 2.8223 2.77711C2.88999 2.60506 2.99601 2.44922 3.13297 2.32045C3.26728 2.18929 3.42981 2.08777 3.60925 2.02296C3.78049 1.95943 3.97618 1.91583 4.26239 1.90317H4.26264ZM6.45934 2.36733C6.17558 2.35491 6.09045 2.35233 5.372 2.35233C4.65354 2.35233 4.56841 2.35491 4.28465 2.36733C4.02217 2.37882 3.8798 2.42078 3.78489 2.45618C3.6594 2.50307 3.56962 2.55863 3.47544 2.64888C3.38617 2.73211 3.31746 2.83344 3.27436 2.94543C3.23742 3.03639 3.19364 3.17283 3.18165 3.42437C3.16868 3.6963 3.16599 3.77788 3.16599 4.4664C3.16599 5.15491 3.16868 5.23649 3.18165 5.50843C3.19364 5.75997 3.23742 5.8964 3.27436 5.98736C3.31742 6.09918 3.38615 6.20069 3.47544 6.28391C3.56228 6.36948 3.6682 6.43535 3.78489 6.47661C3.8798 6.51201 4.02217 6.55397 4.28465 6.56546C4.56841 6.57788 4.6533 6.58046 5.372 6.58046C6.0907 6.58046 6.17558 6.57788 6.45934 6.56546C6.72182 6.55397 6.8642 6.51201 6.95911 6.47661C7.0846 6.42973 7.17438 6.37417 7.26856 6.28391C7.35784 6.20069 7.42658 6.09918 7.46964 5.98736C7.50657 5.8964 7.55036 5.75997 7.56235 5.50843C7.57531 5.23649 7.578 5.15491 7.578 4.4664C7.578 3.77788 7.57531 3.6963 7.56235 3.42437C7.55036 3.17283 7.50657 3.03639 7.46964 2.94543C7.42071 2.82517 7.36274 2.73914 7.26856 2.64888C7.1817 2.56333 7.07597 2.49749 6.95911 2.45618C6.8642 2.42078 6.72182 2.37882 6.45934 2.36733ZM5.0283 5.26134C5.22025 5.33791 5.43398 5.34825 5.63299 5.29058C5.83201 5.23291 6.00395 5.11082 6.11947 4.94515C6.23498 4.77949 6.2869 4.58053 6.26635 4.38226C6.2458 4.18399 6.15406 3.99871 6.00679 3.85806C5.91292 3.76815 5.79941 3.69931 5.67443 3.65648C5.54946 3.61366 5.41614 3.59793 5.28406 3.61041C5.15198 3.6229 5.02443 3.66329 4.91059 3.72868C4.79676 3.79408 4.69947 3.88285 4.62573 3.9886C4.55199 4.09435 4.50364 4.21445 4.48415 4.34027C4.46466 4.46608 4.47452 4.59446 4.51302 4.71618C4.55152 4.8379 4.6177 4.94993 4.7068 5.04419C4.7959 5.13846 4.90571 5.21262 5.0283 5.26134ZM4.394 3.52916C4.52243 3.40608 4.6749 3.30844 4.84271 3.24183C5.01051 3.17522 5.19037 3.14094 5.372 3.14094C5.55363 3.14094 5.73348 3.17522 5.90129 3.24183C6.06909 3.30844 6.22157 3.40608 6.35 3.52916C6.47843 3.65224 6.58031 3.79835 6.64982 3.95917C6.71932 4.11998 6.7551 4.29233 6.7551 4.4664C6.7551 4.64046 6.71932 4.81281 6.64982 4.97363C6.58031 5.13444 6.47843 5.28056 6.35 5.40364C6.09062 5.65221 5.73882 5.79185 5.372 5.79185C5.00518 5.79185 4.65338 5.65221 4.394 5.40364C4.13462 5.15507 3.9889 4.81793 3.9889 4.4664C3.9889 4.11486 4.13462 3.77773 4.394 3.52916ZM7.06185 3.33833C7.09368 3.30956 7.11916 3.27496 7.13678 3.23658C7.1544 3.19821 7.16381 3.15683 7.16445 3.11491C7.16509 3.07298 7.15694 3.03136 7.14049 2.99251C7.12404 2.95365 7.09963 2.91836 7.06869 2.88871C7.03775 2.85906 7.00092 2.83566 6.96038 2.8199C6.91984 2.80414 6.8764 2.79633 6.83266 2.79694C6.78891 2.79755 6.74573 2.80657 6.70569 2.82346C6.66564 2.84035 6.62954 2.86476 6.59951 2.89526C6.54112 2.95458 6.50916 3.03337 6.5104 3.11491C6.51164 3.19644 6.54599 3.2743 6.60616 3.33197C6.66633 3.38963 6.74757 3.42254 6.83266 3.42373C6.91774 3.42492 6.99995 3.39429 7.06185 3.33833Z" fill="white" />
</svg>