<svg width="10" height="10" viewBox="0 0 10 10" fill="none" xmlns="http://www.w3.org/2000/svg">
  <path d="M9.49987 4.57567C9.49987 6.81618 7.63966 8.65133 5.32147 8.65133C3.00328 8.65133 1.14307 6.81618 1.14307 4.57567C1.14307 2.33515 3.00328 0.5 5.32147 0.5C7.63966 0.5 9.49987 2.33515 9.49987 4.57567Z" stroke="white" />
  <path d="M5.45382 7.68886V5.04698H6.38384L6.52208 4.0126H5.45382V3.35374C5.45382 3.05526 5.5406 2.85089 5.98761 2.85089H6.55404V1.92869C6.27844 1.90038 6.00142 1.88672 5.72425 1.88775C4.90219 1.88775 4.33779 2.36868 4.33779 3.25156V4.01067H3.41382V5.04505H4.33981V7.68886H5.45382Z" fill="white" />
</svg>