<svg width="16" height="15" viewBox="0 0 16 15" fill="none" xmlns="http://www.w3.org/2000/svg">
  <path d="M14.7336 7.19324C14.7336 10.8366 11.6251 13.8313 7.73867 13.8313C3.85223 13.8313 0.743774 10.8366 0.743774 7.19324C0.743774 3.54984 3.85223 0.555176 7.73867 0.555176C11.6251 0.555176 14.7336 3.54984 14.7336 7.19324Z" stroke="white" />
  <path d="M7.95092 12.0499V7.92851H9.44083L9.6623 6.31486H7.95092V5.28704C7.95092 4.8214 8.08994 4.5026 8.80607 4.5026H9.71349V3.06395C9.27198 3.01979 8.82819 2.99847 8.38415 3.00009C7.06721 3.00009 6.16302 3.75034 6.16302 5.12764V6.31185H4.6828V7.92549H6.16625V12.0499H7.95092Z" fill="white" />
</svg>