<svg width="16" height="15" viewBox="0 0 16 15" fill="none" xmlns="http://www.w3.org/2000/svg">
  <path d="M14.896 7.19324C14.896 10.8366 11.7876 13.8313 7.90114 13.8313C4.01471 13.8313 0.90625 10.8366 0.90625 7.19324C0.90625 3.54984 4.01471 0.555176 7.90114 0.555176C11.7876 0.555176 14.896 3.54984 14.896 7.19324Z" stroke="white" />
  <path fill-rule="evenodd" clip-rule="evenodd" d="M6.61352 3.02414C7.07321 3.00439 7.21978 3 8.39075 3C9.56171 3 9.70828 3.00475 10.1676 3.02414C10.6269 3.04352 10.9404 3.11191 11.2147 3.21101C11.502 3.31231 11.7626 3.47067 11.9781 3.67546C12.1976 3.87624 12.3669 4.11907 12.475 4.3875C12.5816 4.64349 12.6545 4.93606 12.6757 5.36394C12.6968 5.79365 12.7015 5.93042 12.7015 7.02279C12.7015 8.11553 12.6964 8.2523 12.6757 8.68128C12.6549 9.10916 12.5816 9.40172 12.475 9.65772C12.3669 9.92618 12.1973 10.1694 11.9781 10.3705C11.7626 10.5753 11.502 10.7333 11.2147 10.8342C10.9404 10.9337 10.6269 11.0017 10.1684 11.0214C9.70828 11.0412 9.56171 11.0456 8.39075 11.0456C7.21978 11.0456 7.07321 11.0408 6.61352 11.0214C6.15501 11.0021 5.8415 10.9337 5.56718 10.8342C5.2795 10.7333 5.01885 10.575 4.80338 10.3705C4.58408 10.1696 4.41436 9.92647 4.30608 9.65808C4.19987 9.40209 4.12698 9.10952 4.10582 8.68164C4.08466 8.25194 4.07996 8.11516 4.07996 7.02279C4.07996 5.93005 4.08505 5.79328 4.10582 5.36467C4.12659 4.93606 4.19987 4.64349 4.30608 4.3875C4.41452 4.1191 4.58436 3.87599 4.80378 3.6751C5.01894 3.47048 5.27932 3.31211 5.56679 3.21101C5.84111 3.11191 6.15462 3.04388 6.61313 3.02414H6.61352ZM10.1327 3.74824C9.6781 3.72886 9.54173 3.72483 8.39075 3.72483C7.23976 3.72483 7.10339 3.72886 6.64879 3.74824C6.2283 3.76616 6.00022 3.83162 5.84816 3.88684C5.64712 3.95998 5.5033 4.04666 5.35242 4.18745C5.2094 4.3173 5.09933 4.47537 5.03029 4.65008C4.97111 4.79197 4.90097 5.00481 4.88176 5.39722C4.86099 5.82144 4.85668 5.94871 4.85668 7.02279C4.85668 8.09688 4.86099 8.22414 4.88176 8.64836C4.90097 9.04077 4.97111 9.25361 5.03029 9.39551C5.09926 9.56995 5.20938 9.7283 5.35242 9.85813C5.49154 9.99161 5.66123 10.0944 5.84816 10.1587C6.00022 10.214 6.2283 10.2794 6.64879 10.2973C7.10339 10.3167 7.23937 10.3207 8.39075 10.3207C9.54212 10.3207 9.6781 10.3167 10.1327 10.2973C10.5532 10.2794 10.7813 10.214 10.9333 10.1587C11.1344 10.0856 11.2782 9.99892 11.4291 9.85813C11.5721 9.7283 11.6822 9.56995 11.7512 9.39551C11.8104 9.25361 11.8805 9.04077 11.8997 8.64836C11.9205 8.22414 11.9248 8.09688 11.9248 7.02279C11.9248 5.94871 11.9205 5.82144 11.8997 5.39722C11.8805 5.00481 11.8104 4.79197 11.7512 4.65008C11.6728 4.46247 11.5799 4.32825 11.4291 4.18745C11.2899 4.054 11.1205 3.95128 10.9333 3.88684C10.7813 3.83162 10.5532 3.76616 10.1327 3.74824ZM7.84014 8.26291C8.14764 8.38236 8.49004 8.39848 8.80886 8.30852C9.12769 8.21856 9.40315 8.02809 9.58821 7.76966C9.77327 7.51122 9.85644 7.20084 9.82351 6.89154C9.79059 6.58224 9.64362 6.29319 9.4077 6.07378C9.25731 5.93352 9.07546 5.82612 8.87525 5.75932C8.67504 5.69252 8.46145 5.66797 8.24986 5.68745C8.03826 5.70693 7.83393 5.76994 7.65156 5.87195C7.4692 5.97397 7.31334 6.11245 7.19521 6.27742C7.07708 6.4424 6.99961 6.62976 6.96839 6.82603C6.93716 7.02229 6.95296 7.22257 7.01464 7.41246C7.07632 7.60234 7.18235 7.7771 7.32509 7.92416C7.46783 8.07122 7.64373 8.18691 7.84014 8.26291ZM6.82397 5.56069C7.02972 5.36868 7.27398 5.21638 7.54281 5.11246C7.81164 5.00855 8.09977 4.95507 8.39075 4.95507C8.68172 4.95507 8.96985 5.00855 9.23868 5.11246C9.50751 5.21638 9.75177 5.36868 9.95752 5.56069C10.1633 5.75269 10.3265 5.98064 10.4378 6.23151C10.5492 6.48237 10.6065 6.75125 10.6065 7.02279C10.6065 7.29433 10.5492 7.56321 10.4378 7.81407C10.3265 8.06494 10.1633 8.29289 9.95752 8.48489C9.54199 8.87267 8.9784 9.09051 8.39075 9.09051C7.80309 9.09051 7.2395 8.87267 6.82397 8.48489C6.40843 8.09712 6.17499 7.57119 6.17499 7.02279C6.17499 6.4744 6.40843 5.94846 6.82397 5.56069ZM11.0979 5.263C11.1489 5.21812 11.1897 5.16414 11.218 5.10428C11.2462 5.04441 11.2613 4.97986 11.2623 4.91446C11.2633 4.84905 11.2503 4.78412 11.2239 4.72351C11.1976 4.6629 11.1584 4.60784 11.1089 4.56159C11.0593 4.51534 11.0003 4.47884 10.9354 4.45425C10.8704 4.42966 10.8008 4.41748 10.7307 4.41843C10.6607 4.41938 10.5915 4.43345 10.5273 4.4598C10.4632 4.48614 10.4053 4.52423 10.3572 4.57181C10.2637 4.66435 10.2125 4.78726 10.2145 4.91446C10.2165 5.04165 10.2715 5.16312 10.3679 5.25307C10.4643 5.34302 10.5944 5.39438 10.7307 5.39623C10.8671 5.39808 10.9988 5.35029 11.0979 5.263Z" fill="white" />
</svg>